<svg xmlns="http://www.w3.org/2000/svg" width="25" height="30" fill="none"><path fill="#6B7280" d="M20.658 28.21c-1.598 1.512-3.343 1.273-5.023.557-1.777-.731-3.408-.763-5.283 0-2.348.986-3.587.7-4.99-.556-7.957-8.002-6.783-20.187 2.25-20.632 2.202.111 3.735 1.177 5.023 1.272 1.924-.381 3.767-1.48 5.821-1.336 2.463.191 4.321 1.145 5.544 2.863-5.087 2.975-3.88 9.513.783 11.342-.93 2.386-2.136 4.757-4.142 6.506zM12.472 7.483c-.245-3.547 2.707-6.474 6.098-6.76.473 4.104-3.815 7.158-6.098 6.76"/></svg>