<svg width="36" height="25" viewBox="0 0 36 25" fill="none" xmlns="http://www.w3.org/2000/svg">
<mask id="mask0_7438_18100" style="mask-type:luminance" maskUnits="userSpaceOnUse" x="0" y="0" width="36" height="25">
<path d="M35.3468 0.660156H0.134277V24.7931H35.3468V0.660156Z" fill="white"/>
</mask>
<g mask="url(#mask0_7438_18100)">
<path d="M24.0918 22.2863C26.8836 21.2398 28.5943 20.1726 29.3421 18.9949C29.0122 19.1837 28.7423 19.3403 28.4723 19.4957C25.1834 21.4763 21.3866 22.4506 17.5504 22.2984C14.8617 22.1434 12.2116 21.5848 9.68915 20.6412C8.53445 20.2267 7.41486 19.7127 6.27974 19.2441C6.20995 19.211 6.13364 19.1939 6.05639 19.1941C7.37193 20.7445 9.12443 21.8623 11.085 22.4014C10.4588 23.1843 9.86184 23.9383 9.2511 24.6809C9.16489 24.758 9.05178 24.7981 8.93624 24.7926C6.50733 24.8009 4.13877 24.0362 2.17324 22.6092C1.4351 22.0738 0.857756 21.3463 0.503899 20.5059C0.150042 19.6654 0.0331954 18.7441 0.166047 17.8419C0.460956 14.4924 1.23761 11.203 2.47199 8.07533C4.29787 3.54403 7.67102 1.04525 12.5673 0.660156C12.7849 0.664228 12.9939 0.74588 13.1567 0.890405C11.8477 1.36011 10.5215 1.78895 9.23268 2.31104C7.92315 2.83396 6.70894 3.56952 5.63907 4.48805C13.5616 0.966771 21.461 1.00764 29.3375 4.61066C28.8154 3.8422 25.9908 2.45207 22.2648 1.13274C22.3293 0.980208 22.4434 0.853887 22.5886 0.774191C22.7338 0.694495 22.9016 0.666082 23.0649 0.693542C27.8213 1.14368 31.1599 3.56532 32.9783 7.97056C34.226 11.0364 35.0133 14.2699 35.3147 17.5662C35.4493 18.5443 35.2969 19.5403 34.8761 20.4334C34.4553 21.3265 33.7842 22.0782 32.9443 22.5971C30.9905 23.8919 28.7073 24.6009 26.3638 24.6406C26.2529 24.6508 26.1414 24.6316 26.0403 24.5849C25.9392 24.5382 25.8523 24.4657 25.7882 24.3747C25.2436 23.6839 24.6824 23.0081 24.0953 22.2863M26.2619 14.4486C26.2673 13.6174 25.9499 12.8165 25.3765 12.2146C24.8032 11.6126 24.0186 11.2567 23.1881 11.2217C22.3572 11.252 21.5705 11.6036 20.9938 12.2025C20.417 12.8013 20.0952 13.6007 20.0961 14.4321C20.097 15.2635 20.4205 16.0622 20.9986 16.6598C21.5766 17.2574 22.364 17.6073 23.195 17.6358C24.0188 17.6034 24.7982 17.2535 25.3699 16.6594C25.9415 16.0653 26.2612 15.2731 26.2619 14.4486ZM9.05597 14.3962C9.04672 15.2269 9.36025 16.0288 9.93052 16.6329C10.5008 17.237 11.2833 17.5961 12.1131 17.6347C12.9456 17.6103 13.7359 17.2631 14.3171 16.6666C14.8983 16.0701 15.2248 15.271 15.2275 14.4382C15.2303 13.6054 14.9091 12.8041 14.3319 12.2038C13.7547 11.6034 12.9667 11.2511 12.1344 11.2211C11.3107 11.2509 10.5305 11.598 9.95681 12.1897C9.3831 12.7815 9.06033 13.5721 9.05597 14.3962Z" fill="#6B7280"/>
</g>
</svg>
