<svg width="30" height="29" viewBox="0 0 30 29" fill="none" xmlns="http://www.w3.org/2000/svg">
<path d="M15.1236 0.722656C13.2433 0.722656 11.3814 1.08496 9.64417 1.78887C7.90698 2.49278 6.32853 3.52452 4.99894 4.82518C2.31372 7.45199 0.805176 11.0147 0.805176 14.7296C0.805176 20.9206 4.91456 26.1732 10.599 28.0361C11.3149 28.1482 11.544 27.714 11.544 27.3358V24.9686C7.57778 25.809 6.733 23.0917 6.733 23.0917C6.07435 21.4669 5.14365 21.0327 5.14365 21.0327C3.84068 20.1642 5.24388 20.1922 5.24388 20.1922C6.67572 20.2903 7.4346 21.635 7.4346 21.635C8.6803 23.764 10.7851 23.1337 11.6013 22.7975C11.7301 21.8871 12.1024 21.2708 12.5033 20.9206C9.32463 20.5704 5.98844 19.3658 5.98844 14.0292C5.98844 12.4744 6.53254 11.2278 7.46324 10.2333C7.32005 9.88317 6.81891 8.42645 7.60642 6.53552C7.60642 6.53552 8.80917 6.15733 11.544 7.96422C12.6751 7.65607 13.9065 7.502 15.1236 7.502C16.3407 7.502 17.572 7.65607 18.7032 7.96422C21.438 6.15733 22.6408 6.53552 22.6408 6.53552C23.4283 8.42645 22.9271 9.88317 22.7839 10.2333C23.7146 11.2278 24.2587 12.4744 24.2587 14.0292C24.2587 19.3798 20.9082 20.5564 17.7152 20.9066C18.2307 21.3408 18.7032 22.1952 18.7032 23.4979V27.3358C18.7032 27.714 18.9323 28.1622 19.6625 28.0361C25.3469 26.1592 29.442 20.9206 29.442 14.7296C29.442 12.8901 29.0716 11.0687 28.3521 9.36935C27.6325 7.66995 26.5778 6.12584 25.2482 4.82518C23.9186 3.52452 22.3402 2.49278 20.603 1.78887C18.8658 1.08496 17.0039 0.722656 15.1236 0.722656Z" fill="#6B7280"/>
</svg>
