<svg width="28" height="29" viewBox="0 0 28 29" fill="none" xmlns="http://www.w3.org/2000/svg">
<path d="M6.30413 28.0578H0.643139V9.80723H6.30413V28.0578ZM3.4706 7.3178C2.81918 7.32079 2.18149 7.13034 1.63818 6.77052C1.09486 6.4107 0.670323 5.89767 0.418238 5.29631C0.166153 4.69495 0.0978441 4.03225 0.221948 3.39203C0.346052 2.7518 0.656996 2.16279 1.11546 1.69947C1.57393 1.23616 2.15933 0.919343 2.79764 0.789093C3.43595 0.658842 4.0985 0.721003 4.70153 0.967716C5.30455 1.21443 5.82096 1.63461 6.18546 2.17514C6.54995 2.71567 6.74617 3.35226 6.7493 4.00442C6.75029 4.87814 6.40615 5.7168 5.79195 6.3375C5.17774 6.9582 4.3433 7.31059 3.4706 7.3178ZM27.4907 28.0578H21.8437V19.1736C21.8437 17.0563 21.8012 14.341 18.9004 14.341C15.9571 14.341 15.504 16.6416 15.504 19.0212V28.0578H9.84968V9.80723H15.279V12.2967H15.3584C15.9013 11.3663 16.6862 10.6008 17.6294 10.0818C18.5726 9.56273 19.6388 9.30963 20.7144 9.34942C26.4433 9.34942 27.4968 13.1267 27.4968 18.0321V28.0578H27.4907Z" fill="#6B7280"/>
</svg>
